<?xml version="1.0" encoding="UTF-8"?>
<svg width="24px" height="24px" viewBox="0 0 24 24" version="1.1" xmlns="http://www.w3.org/2000/svg">
    <g stroke="none" stroke-width="1" fill="none" fill-rule="evenodd">
        <path d="M13.13,22.19L11.5,18.36C14.07,17.78 16.54,17 18.9,16.09C18.9,16.09 19.37,15.83 19.62,16.08C19.87,16.33 19.61,16.8 19.61,16.8C18.7,19.16 17.92,21.63 17.34,24.2L13.13,22.19ZM5.64,11.5L1.81,13.13L3.8,17.34C6.37,16.76 8.84,15.98 11.2,15.09C11.2,15.09 11.67,14.83 11.92,15.08C12.17,15.33 11.91,15.8 11.91,15.8C11,18.16 10.22,20.63 9.64,23.2L5.64,11.5ZM21.61,2.39C21.61,2.39 16.66,0.269 11,5.93C8.81,8.12 7.5,10.53 6.65,12.64C6.37,13.39 6.56,14.21 7.11,14.77L9.24,16.89C9.79,17.45 10.61,17.63 11.36,17.35C13.5,16.53 15.88,15.19 18.07,13C23.73,7.34 21.61,2.39 21.61,2.39ZM14.54,9.46C13.76,8.68 13.76,7.41 14.54,6.63C15.31,5.85 16.58,5.85 17.36,6.63C18.14,7.41 18.15,8.68 17.37,9.46C16.59,10.24 15.32,10.24 14.54,9.46Z" fill="#000000"></path>
    </g>
</svg> 